<svg width="40" height="40" viewBox="0 0 40 40" fill="none" xmlns="http://www.w3.org/2000/svg">
<rect width="40" height="40" rx="6.66667" fill="#FCFCFC"/>
<path fill-rule="evenodd" clip-rule="evenodd" d="M20 33.7015C28.0772 33.7015 34.625 27.3604 34.625 19.5383C34.625 11.7161 28.0772 5.375 20 5.375C11.9228 5.375 5.375 11.7161 5.375 19.5383C5.375 23.7926 7.3119 27.6088 10.3783 30.205V33.0711C10.3783 34.1913 11.5193 34.9426 12.5366 34.4923L15.7171 33.0845C17.0717 33.4857 18.5098 33.7015 20 33.7015Z" fill="url(#paint0_linear_1136_43584)"/>
<path d="M16.4979 16.5275L12.2569 22.3276C11.8022 22.9494 12.6199 23.6965 13.2425 23.228L16.8638 20.5027C17.2324 20.2253 17.7491 20.2216 18.122 20.4936L21.3427 22.8431C21.9604 23.2937 22.8431 23.1641 23.2928 22.5568L27.7406 16.5508C28.2018 15.9279 27.3778 15.1748 26.7543 15.6494L22.9257 18.5641C22.557 18.8447 22.0376 18.8499 21.663 18.5766L18.4527 16.2347C17.8325 15.7823 16.9457 15.9151 16.4979 16.5275Z" fill="white"/>
<defs>
<linearGradient id="paint0_linear_1136_43584" x1="20" y1="5.375" x2="15.3072" y2="34.4656" gradientUnits="userSpaceOnUse">
<stop stop-color="#00B1FF"/>
<stop offset="1" stop-color="#006BFF"/>
</linearGradient>
</defs>
</svg>
