<svg width="40" height="40" viewBox="0 0 40 40" fill="none" xmlns="http://www.w3.org/2000/svg">
<g clip-path="url(#clip0_1136_44182)">
<path d="M0 13.7143C0 8.91384 0 6.51361 0.93423 4.68008C1.756 3.06726 3.06726 1.756 4.68008 0.93423C6.51361 0 8.91384 0 13.7143 0H26.2857C31.0862 0 33.4864 0 35.3199 0.93423C36.9327 1.756 38.244 3.06726 39.0658 4.68008C40 6.51361 40 8.91384 40 13.7143V26.2857C40 31.0862 40 33.4864 39.0658 35.3199C38.244 36.9327 36.9327 38.244 35.3199 39.0658C33.4864 40 31.0862 40 26.2857 40H13.7143C8.91384 40 6.51361 40 4.68008 39.0658C3.06726 38.244 1.756 36.9327 0.93423 35.3199C0 33.4864 0 31.0862 0 26.2857V13.7143Z" fill="url(#paint0_linear_1136_44182)"/>
<path d="M20 28.75C26.2132 28.75 31.25 24.5527 31.25 19.375C31.25 14.1973 26.2132 10 20 10C13.7868 10 8.75 14.1973 8.75 19.375C8.75 22.6569 10.7736 25.5449 13.8377 27.2198C13.7352 28.0534 13.4268 29.1658 12.5 30C14.2526 29.6845 15.6514 29.0506 16.6963 28.3393C17.741 28.6063 18.8503 28.75 20 28.75Z" fill="white"/>
</g>
<defs>
<linearGradient id="paint0_linear_1136_44182" x1="20" y1="0" x2="20" y2="40" gradientUnits="userSpaceOnUse">
<stop stop-color="#5AF575"/>
<stop offset="1" stop-color="#13BD2C"/>
</linearGradient>
<clipPath id="clip0_1136_44182">
<rect width="40" height="40" fill="white"/>
</clipPath>
</defs>
</svg>
