<svg width="40" height="40" viewBox="0 0 40 40" fill="none" xmlns="http://www.w3.org/2000/svg">
<rect width="40" height="40" rx="8" fill="#289EFD"/>
<path d="M24.8255 29.8388C24.3507 30.052 23.8615 30.2387 23.3559 30.3887C23.8422 29.9521 24.295 29.4786 24.7159 28.976L24.4564 26.9304C23.4742 28.405 22.2125 29.6588 20.7167 30.5865V24.9948C21.9633 25.0691 23.1723 25.3394 24.3109 25.7858L24.1189 24.2705C23.0279 23.9131 21.8869 23.6948 20.7167 23.6321V19.7436H26.7636C26.7137 20.8527 26.5406 21.9322 26.2579 22.963L27.4569 23.9501C27.8822 22.6157 28.1382 21.203 28.1984 19.7436H31.7923C31.6647 21.9844 30.9094 24.0593 29.7005 25.7964L30.7515 26.6617C32.2743 24.5129 33.1724 21.892 33.1724 19.064C33.1724 15.6636 31.8771 12.5599 29.7539 10.2205L29.7703 10.204L29.2854 9.7222C27.1357 7.58524 24.3773 6.28104 21.4048 5.96739C21.3827 5.96518 21.3608 5.96171 21.3387 5.95949C21.1572 5.94133 20.975 5.92854 20.7921 5.91796C20.7512 5.91527 20.7106 5.91085 20.6695 5.90911C20.5929 5.90517 20.516 5.90517 20.4393 5.90248C20.1442 5.87911 19.8404 5.86268 19.5274 5.85873C19.4329 5.857 19.3429 5.88005 19.2565 5.91448C19.2404 5.91543 19.2244 5.91717 19.2085 5.91812C19.0256 5.9287 18.8432 5.94149 18.6619 5.95965C18.6398 5.96186 18.6178 5.96534 18.5957 5.96755C15.6233 6.2812 12.8647 7.58555 10.7151 9.72236L10.2303 10.2042L10.2467 10.2206C8.12348 12.5602 6.82812 15.6637 6.82812 19.0641C6.82812 22.465 8.12348 25.5687 10.2467 27.9078L10.2303 27.9242L10.7151 28.4064C12.8649 30.5429 15.6233 31.8471 18.5957 32.1607C18.6178 32.1629 18.6398 32.1664 18.6619 32.1686C18.8434 32.1868 19.0256 32.1996 19.2085 32.2106C19.2244 32.2116 19.2404 32.2133 19.2565 32.2141C19.3404 32.2473 19.428 32.2694 19.5185 32.2694C19.5214 32.2694 19.5245 32.2694 19.5274 32.2694C19.8404 32.2654 20.1441 32.249 20.4393 32.2256C20.516 32.2229 20.5931 32.2229 20.6695 32.2195C20.7106 32.2173 20.7512 32.2128 20.7921 32.2106C20.975 32.1996 21.1574 32.1868 21.3387 32.1686C21.3608 32.1664 21.3827 32.1629 21.4048 32.1607C22.6525 32.0293 23.8616 31.7209 25.0049 31.2515L24.8255 29.8388ZM31.7923 18.3844H28.1984C28.1139 16.3319 27.6485 14.3681 26.8579 12.5921C27.5332 12.1785 28.1753 11.7028 28.7755 11.1654C30.5206 13.1024 31.6347 15.6176 31.7923 18.3844ZM27.8072 10.2094C27.3164 10.6426 26.7941 11.0292 26.2475 11.3712C25.481 10.0005 24.5063 8.7724 23.3561 7.73938C25.0226 8.23402 26.5357 9.087 27.8072 10.2094ZM20.7169 7.54196C22.4958 8.64543 23.9493 10.2063 24.9874 12.0559C23.6563 12.6771 22.2128 13.0443 20.7169 13.1337V7.54196ZM20.7169 14.496C22.4265 14.4049 24.0762 13.989 25.5938 13.2763C26.2772 14.8452 26.6821 16.5759 26.7638 18.3846H20.7169V14.496ZM16.6404 7.74064C15.4902 8.77288 14.5161 9.99969 13.7501 11.3694C13.2046 11.0278 12.6833 10.642 12.1932 10.2094C13.4636 9.08779 14.9753 8.23528 16.6404 7.74064ZM11.2248 11.1654C11.8238 11.702 12.4652 12.1772 13.1392 12.5899C12.3499 14.3644 11.886 16.3288 11.802 18.3844H8.20813C8.36574 15.6176 9.47979 13.1024 11.2248 11.1654ZM8.20813 19.7436H11.802C11.886 21.799 12.3499 23.7634 13.1392 25.538C12.4652 25.9512 11.8238 26.4259 11.2248 26.9626C9.47979 25.0257 8.36574 22.511 8.20813 19.7436ZM12.1932 27.9192C12.6833 27.4864 13.2048 27.1006 13.7501 26.7592C14.5162 28.1289 15.4902 29.3554 16.6404 30.3879C14.9753 29.8927 13.4636 29.0402 12.1932 27.9192ZM19.2835 30.5869C17.5024 29.483 16.0477 27.9244 15.0097 26.0737C16.3417 25.4521 17.7862 25.084 19.2835 24.9948V30.5869ZM19.2835 23.632C17.5728 23.7236 15.9218 24.1399 14.4036 24.8536C13.7217 23.2861 13.3178 21.5549 13.2367 19.7436H19.2835V23.632ZM19.2835 18.3844H13.2367C13.3178 16.5731 13.7215 14.8423 14.4036 13.2749C15.9218 13.9886 17.5728 14.4049 19.2835 14.496V18.3844ZM19.2835 13.1338C17.7862 13.0444 16.3416 12.6765 15.0094 12.0548C16.0475 10.2042 17.5022 8.64511 19.2835 7.54165V13.1338Z" fill="#FCFCFC"/>
<path d="M31.574 28.5118L24.8706 22.9945L25.9632 31.6076L27.9373 30.5183L29.7802 33.8586L31.4427 32.9415L29.5999 29.6011L31.574 28.5118Z" fill="#FCFCFC"/>
</svg>
