<svg width="40" height="40" viewBox="0 0 40 40" fill="none" xmlns="http://www.w3.org/2000/svg">
<rect width="40" height="40" rx="6.66667" fill="#2DC100"/>
<path fill-rule="evenodd" clip-rule="evenodd" d="M16.0079 9.00121C10.5419 8.92086 6 12.8397 6 17.4615C6 20.1293 7.28609 22.4438 9.77559 24.143C9.77559 24.143 8.86319 27.0808 8.87616 27.1397C8.88914 27.1987 9.08772 27.3144 9.15683 27.2766C9.22593 27.2388 12.4551 25.3599 12.4551 25.3599C14.7693 26.135 16.1809 25.9443 16.4219 25.9117C16.4386 25.9095 16.4497 25.908 16.4551 25.9076C16.2081 25.2021 16.0462 24.1035 16.2305 23.068C17.1953 17.6488 22.8821 15.9631 25.9989 16.251C25.1382 12.3374 21.3998 9.08043 16.0079 9.00121ZM12.2087 13.4492C11.4916 13.4492 10.9105 14.0164 10.9105 14.7161C10.9105 15.4158 11.4916 15.983 12.2087 15.983C12.9257 15.983 13.507 15.4158 13.507 14.7161C13.507 14.0164 12.9257 13.4492 12.2087 13.4492ZM20.0682 13.4492C19.3513 13.4492 18.7701 14.0164 18.7701 14.7161C18.7701 15.4158 19.3513 15.983 20.0682 15.983C20.7853 15.983 21.3666 15.4158 21.3666 14.7161C21.3666 14.0164 20.7854 13.4492 20.0682 13.4492Z" fill="white"/>
<path fill-rule="evenodd" clip-rule="evenodd" d="M34 23.8925C34 19.9331 30.0754 16.9003 25.5224 16.9003C20.7016 16.9003 16.8566 20.0016 16.8566 23.9608C16.8566 27.9273 20.5138 31.2109 25.5279 31.2378C26.5372 31.2433 28.0403 30.9902 29.0539 30.5771C29.0539 30.5771 31.477 32.0105 31.6127 31.9999C31.7483 31.9893 31.8178 31.8845 31.8232 31.7946C31.8286 31.7047 31.0512 29.4673 31.0512 29.4673C33.1318 27.8776 34 26.1259 34 23.8925ZM22.3494 20.1855C21.715 20.1855 21.2008 20.6881 21.2008 21.3083C21.2008 21.9282 21.715 22.431 22.3494 22.431C22.9838 22.431 23.498 21.9284 23.498 21.3083C23.498 20.6881 22.9838 20.1855 22.3494 20.1855ZM28.4913 20.1855C27.8569 20.1855 27.3427 20.6881 27.3427 21.3083C27.3427 21.9282 27.8569 22.431 28.4913 22.431C29.1258 22.431 29.64 21.9284 29.64 21.3083C29.64 20.6881 29.1258 20.1855 28.4913 20.1855Z" fill="white"/>
</svg>
