<svg width="40" height="40" viewBox="0 0 40 40" fill="none" xmlns="http://www.w3.org/2000/svg">
<rect width="40" height="40" rx="6.66667" fill="#FCFCFC"/>
<path fill-rule="evenodd" clip-rule="evenodd" d="M20 36.875C28.6985 36.875 35.75 29.8235 35.75 21.125C35.75 12.4265 28.6985 5.375 20 5.375C11.3015 5.375 4.25 12.4265 4.25 21.125C4.25 23.9497 4.99362 26.6008 6.29578 28.8931L4.25 36.875L12.4792 34.9668C14.714 36.1836 17.2763 36.875 20 36.875ZM20 34.4519C27.3603 34.4519 33.3269 28.4853 33.3269 21.125C33.3269 13.7647 27.3603 7.79808 20 7.79808C12.6397 7.79808 6.67308 13.7647 6.67308 21.125C6.67308 23.9668 7.56256 26.6009 9.07832 28.764L7.88462 33.2404L12.4399 32.1016C14.588 33.5839 17.1926 34.4519 20 34.4519Z" fill="#BFC8D0"/>
<path d="M33.5 20C33.5 27.4558 27.4558 33.5 20 33.5C17.1562 33.5 14.5177 32.6207 12.3417 31.1191L7.72727 32.2727L8.93648 27.7382C7.40104 25.547 6.5 22.8787 6.5 20C6.5 12.5442 12.5442 6.5 20 6.5C27.4558 6.5 33.5 12.5442 33.5 20Z" fill="url(#paint0_linear_1136_43577)"/>
<path fill-rule="evenodd" clip-rule="evenodd" d="M20 35.75C28.6985 35.75 35.75 28.6985 35.75 20C35.75 11.3015 28.6985 4.25 20 4.25C11.3015 4.25 4.25 11.3015 4.25 20C4.25 22.8247 4.99362 25.4758 6.29578 27.7681L4.25 35.75L12.4792 33.8418C14.714 35.0586 17.2763 35.75 20 35.75ZM20 33.3269C27.3603 33.3269 33.3269 27.3603 33.3269 20C33.3269 12.6397 27.3603 6.67308 20 6.67308C12.6397 6.67308 6.67308 12.6397 6.67308 20C6.67308 22.8418 7.56256 25.4759 9.07832 27.639L7.88462 32.1154L12.4399 30.9766C14.588 32.4589 17.1926 33.3269 20 33.3269Z" fill="white"/>
<path d="M16.0625 12.6876C15.6881 11.9354 15.1136 12.002 14.5333 12.002C13.4961 12.002 11.8789 13.2443 11.8789 15.5564C11.8789 17.4512 12.7139 19.5255 15.5275 22.6283C18.2428 25.6228 21.8106 27.1718 24.7725 27.1191C27.7344 27.0664 28.3438 24.5176 28.3438 23.6568C28.3438 23.2753 28.107 23.0849 27.9439 23.0332C26.9346 22.5488 25.073 21.6462 24.6494 21.4766C24.2259 21.3071 24.0047 21.5364 23.8672 21.6612C23.4831 22.0273 22.7217 23.1061 22.461 23.3487C22.2002 23.5914 21.8116 23.4686 21.6498 23.3768C21.0546 23.138 19.4408 22.4201 18.1544 21.1731C16.5635 19.6309 16.4701 19.1003 16.1704 18.628C15.9306 18.2502 16.1066 18.0184 16.1944 17.917C16.5371 17.5215 17.0104 16.9109 17.2227 16.6075C17.4349 16.304 17.2664 15.8433 17.1653 15.5564C16.7305 14.3223 16.3621 13.2893 16.0625 12.6876Z" fill="white"/>
<defs>
<linearGradient id="paint0_linear_1136_43577" x1="31.8125" y1="9.875" x2="6.5" y2="33.5" gradientUnits="userSpaceOnUse">
<stop stop-color="#5BD066"/>
<stop offset="1" stop-color="#27B43E"/>
</linearGradient>
</defs>
</svg>
