<svg xmlns="http://www.w3.org/2000/svg" width="256" height="256" fill="none"><path fill="#289EFD" d="M127.943 182.047a73.469 73.469 0 0 1 36.32 9.21l.942.521a148.611 148.611 0 0 1 33.036 24.893l13.408 13.408c-14.798 12.14-32.284 21.122-51.429 25.921l-19.457-32.445c-2.789-5.035-7.744-7.733-12.82-7.981h-.435c-5.075.248-10.03 2.946-12.82 7.981l-19.376 32.307c-19.08-4.871-36.496-13.9-51.226-26.067l13.125-13.124a148.609 148.609 0 0 1 33.037-24.893l.941-.521a73.465 73.465 0 0 1 36.319-9.21h.435ZM229.795 44.086c12.167 14.73 21.196 32.147 26.067 51.227l-32.307 19.375c-5.035 2.79-7.732 7.745-7.979 12.82v.435c.247 5.076 2.944 10.031 7.979 12.82L256 160.22c-4.799 19.145-13.781 36.631-25.921 51.429l-13.408-13.408a148.611 148.611 0 0 1-24.893-33.036l-.521-.942a73.469 73.469 0 0 1-9.21-36.32v-.435a73.465 73.465 0 0 1 9.21-36.319l.521-.942a148.6 148.6 0 0 1 24.893-33.036l13.124-13.125ZM38.78 57.21a148.573 148.573 0 0 1 24.893 33.037l.523.94a73.463 73.463 0 0 1 9.21 36.321v.435a73.46 73.46 0 0 1-9.21 36.319l-.523.943a148.607 148.607 0 0 1-24.893 33.036L25.719 211.3C13.655 196.492 4.741 179.015 0 159.891l31.898-19.128c5.035-2.79 7.732-7.744 7.98-12.82v-.435c-.248-5.075-2.945-10.03-7.98-12.82L.138 95.642C4.95 76.583 13.91 59.174 26.002 44.433L38.78 57.211ZM159.891 0c19.124 4.741 36.601 13.655 51.409 25.719L198.241 38.78a148.584 148.584 0 0 1-33.036 24.893l-.942.523a73.462 73.462 0 0 1-36.32 9.21h-.435a73.464 73.464 0 0 1-36.319-9.21l-.94-.523A148.578 148.578 0 0 1 57.21 38.78L44.433 26.002C59.174 13.91 76.583 4.951 95.643.138l19.045 31.76c2.79 5.035 7.745 7.731 12.82 7.98h.435c5.076-.248 10.03-2.945 12.82-7.98L159.891 0Z"/></svg>